<svg id="Layer_1" data-name="Layer 1" xmlns="http://www.w3.org/2000/svg" viewBox="0 0 335.84 51"><defs><style>.cls-1{fill:#231f20;}.cls-2{fill:none;stroke:#231f20;stroke-miterlimit:10;}</style></defs><title>benvenuto logo</title><path class="cls-1" d="M31.11,117.26h8.06v31.16H31.11V148c1.9,0,2.57-2.3,2.57-5.31V122.93c0-2.74-.62-5.31-2.57-5.31v-0.35Zm11.15,31.16v-0.66c3.54-.09,6.64-0.71,6.64-7.48,0-6.42-3.63-7.22-6.64-7.3v-0.71c2.39-.27,4.82-1.68,4.82-7.53,0-5.49-2.61-6.55-4.82-6.77v-0.71c5.53,0.09,10.27.62,10.27,7.52s-6.77,7.66-7.66,7.66c2.88,0,9.74.53,9.74,8.06C54.61,147.76,49.26,148.38,42.26,148.43Z" transform="translate(-17.79 -106.65)"/><path class="cls-1" d="M65.94,148.43H58v-0.66c1.86,0,2.43-1.95,2.43-5V122.66c0-2.74-.49-4.74-2.43-4.74v-0.66h7.92v31.16ZM69.08,118v-0.71H81v8.19H80.33C79.75,119.12,73,118.15,69.08,118Zm0,15.14v-0.84c2.08-.13,5.31-0.8,5.75-4.47H75.5v9.74H74.84C74.4,133.86,71.17,133.24,69.08,133.11Zm12.48,15.32H69.08v-0.71C73,147.5,79.8,146.39,80.9,139h0.66v9.43Z" transform="translate(-17.79 -106.65)"/><path class="cls-1" d="M94.31,117.26l19.12,24.17v7h-1.86L90.06,121.16c-2.83-3.54-4.12-3.14-5.27-3.23v-0.66h9.52Zm4.12,30.5v0.66H85.28v-0.66c6.55,0,6.55-8.5,6.55-10.49H92.5C92.5,139.22,92.46,147.76,98.43,147.76Zm8.41-30.5H119.9v0.66c-6.55,0-6.46,8.41-6.46,10.49h-0.66c0-2.08,0-10.54-5.93-10.49v-0.66Z" transform="translate(-17.79 -106.65)"/><path class="cls-1" d="M132.16,122.49l7.66,19.79-2.43,6.15h-0.71c-8.1-19.52-11-27.09-11-27.09-1.33-3.32-2.83-3.41-4.16-3.41v-0.66h13v0.66C130.83,117.93,132.11,122.31,132.16,122.49Zm9.56-5.22h11.73v0.66c-2.48,0-4,0-8.28,10.58l-0.62-.18c0.71-2.08,4-10.4-2.83-10.4v-0.66Z" transform="translate(-17.79 -106.65)"/><path class="cls-1" d="M163.67,148.43h-7.92v-0.66c1.86,0,2.43-1.95,2.43-5V122.66c0-2.74-.49-4.74-2.43-4.74v-0.66h7.92v31.16ZM166.81,118v-0.71h11.91v8.19h-0.66C177.48,119.12,170.71,118.15,166.81,118Zm0,15.14v-0.84c2.08-.13,5.31-0.8,5.75-4.47h0.66v9.74h-0.66C172.13,133.86,168.9,133.24,166.81,133.11Zm12.48,15.32H166.81v-0.71c3.94-.22,10.71-1.33,11.82-8.72h0.66v9.43Z" transform="translate(-17.79 -106.65)"/><path class="cls-1" d="M192,117.26l19.12,24.17v7h-1.86l-21.51-27.27c-2.83-3.54-4.12-3.14-5.27-3.23v-0.66H192Zm4.12,30.5v0.66H183v-0.66c6.55,0,6.55-8.5,6.55-10.49h0.66C190.23,139.22,190.19,147.76,196.16,147.76Zm8.41-30.5h13.06v0.66c-6.55,0-6.46,8.41-6.46,10.49H210.5c0-2.08,0-10.54-5.93-10.49v-0.66Z" transform="translate(-17.79 -106.65)"/><path class="cls-1" d="M243.34,137.89H244c0,8.72-6.15,10.93-10.84,10.93-5.89,0-10.62-3.94-10.62-11.15V121.82c0-2.88-1.37-3.9-3.32-3.9v-0.66h12.53v0.66c-1.9,0-3.81.58-3.81,3.9V138c0,5.36,3.23,8.5,7.75,8.5C239.63,146.52,243.34,143.56,243.34,137.89Zm-5.62-20.63h12.39v0.66c-6.24,0-6.11,5.31-6.11,7.39h-0.66c0-2.08,0-7.39-5.62-7.39v-0.66Z" transform="translate(-17.79 -106.65)"/><path class="cls-1" d="M280,117.26v8.37h-0.66c-0.27-7.57-8.68-7.7-9-7.7h-1.73V143.6c0,3,1.64,4.16,3.5,4.16v0.66H259.72v-0.66c1.86,0,3.5-1.2,3.5-4.16V117.93h-1.73c-0.66,0-8.68.13-8.94,7.7h-0.66v-8.37H280Z" transform="translate(-17.79 -106.65)"/><path class="cls-1" d="M295,148.07v0.66c-8.68-.71-13.28-7.35-13.28-15.67S286.32,117.71,295,117v0.71c-4.38.66-6.95,4.51-6.95,15.4S290.62,147.45,295,148.07Zm3.1,0.66v-0.66c4.34-.62,6.86-4.07,6.86-15s-2.52-14.74-6.86-15.4V117c8.72,0.75,13.28,7.83,13.28,16.11S306.82,148.07,298.1,148.74Z" transform="translate(-17.79 -106.65)"/><path class="cls-1" d="M328.42,148.07v0.66c-8.68-.71-13.28-7.35-13.28-15.67s4.6-15.36,13.28-16.11v0.71c-4.38.66-6.95,4.51-6.95,15.4S324,147.45,328.42,148.07Zm3.1,0.66v-0.66c4.34-.62,6.86-4.07,6.86-15s-2.52-14.74-6.86-15.4V117c8.72,0.75,13.28,7.83,13.28,16.11S340.23,148.07,331.51,148.74Z" transform="translate(-17.79 -106.65)"/><polyline class="cls-2" points="0.5 12.21 0.5 0.5 13.38 0.5"/><polyline class="cls-2" points="335.34 38.79 335.34 50.5 322.46 50.5"/></svg>